<svg width="33" height="32" viewBox="0 0 33 32" fill="none" xmlns="http://www.w3.org/2000/svg">
<path d="M20.5 16C20.501 16.1755 20.4673 16.3494 20.401 16.5119C20.3346 16.6743 20.2369 16.8221 20.1133 16.9467L14.78 22.28C14.5289 22.5311 14.1884 22.6721 13.8333 22.6721C13.4782 22.6721 13.1377 22.5311 12.8866 22.28C12.6356 22.0289 12.4945 21.6884 12.4945 21.3333C12.4945 20.9783 12.6356 20.6377 12.8866 20.3867L17.2866 16L12.9 11.6133C12.6815 11.3583 12.5674 11.0302 12.5803 10.6946C12.5933 10.359 12.7324 10.0407 12.9699 9.80325C13.2073 9.56579 13.5257 9.42668 13.8612 9.41372C14.1968 9.40076 14.5249 9.5149 14.78 9.73333L20.1133 15.0667C20.3596 15.315 20.4985 15.6502 20.5 16Z" fill="#2E2E2E"/>
</svg>
